# xmcd
#
# Track frame offsets:
#  150
#  13628
#  24919
#  34664
#  44214
#  56404
#  68266
#  78498
#  89308
#  97492
#  109229
#  119238
#  129735
#  141771
#  153362
#  164465
#  176167
#  186197
#  197502
#  206884
#  217848
#  226882
#  237477
#  248810
#  259816
#  271219
#  281089
#  292568
#  301992
#  312768
#  323307
#
# Disc length: 4469 seconds
#
# Revision: 0
# Processed by: cddbd v1.5.2PL0 Copyright (c) Steve Scherf et al.
# Submitted via: AltoMP3_Maker 3.0
#
DISCID=bc11731f
DTITLE=Various Artist - Mercury Hillbilly, Vol. 1
DYEAR=1900
DGENRE=
TTITLE0=Eddie Hill - The Hot Guitar
TTITLE1=Tibby Edwards - There Ain't No Better Time
TTITLE2=James O'Gwynn - Easy Baby
TTITLE3=George and Earl - Can I?
TTITLE4=Jimmie Skinner - Just Ramblin' On
TTITLE5=Paul and Roy - Every Dog Must Have His Day
TTITLE6=The Carlisles - I'm Rough Stuff
TTITLE7=Johnny Horton - First Train Headin' South
TTITLE8=Tibby Edwards - C'Est Ci Tout
TTITLE9=Curtis Gordon - So Tired of Crying
TTITLE10=Joe Carson - I'll Do the Dishes
TTITLE11=Country Johnny Mathis - One Life
TTITLE12=Jimmie Skinner - How Low Can You Feel?
TTITLE13=James O'Gwynn - Mule Skinner Blues
TTITLE14=Johnny Horton - The Devil Made a Masterpiece
TTITLE15=Mac O'Dell - The Redball Rocket Train
TTITLE16=Tiny Hill - Hot Rod Race No. 2
TTITLE17=The Carlisles - T'Ain't Nice
TTITLE18=Jimmy Dean - I Found Out
TTITLE19=Ernie Lee - You Got the Money, I Got the Time
TTITLE20=George and Earl - Got Anything Good
TTITLE21=Tibby Edwards - Shift Gears
TTITLE22=Dude Martin - Pistol Boogie
TTITLE23=Joe Carson - I'm Not Allergic to Love
TTITLE24=Paul and Roy - You're All Alone Tonight
TTITLE25=Ken Marvin - Let's Take the Long Way Home
TTITLE26=Jimmie Skinner - Born to Be Wild
TTITLE27=Hank Noble - Wa-Ha-Ne-Na
TTITLE28=Lew Childre - Ridin' on the Elevated Railroad
TTITLE29=Ernie Lee - No No Joe
TTITLE30=Red Kirk - Sugar Coated Love
EXTD=
EXTT0=
EXTT1=
EXTT2=
EXTT3=
EXTT4=
EXTT5=
EXTT6=
EXTT7=
EXTT8=
EXTT9=
EXTT10=
EXTT11=
EXTT12=
EXTT13=
EXTT14=
EXTT15=
EXTT16=
EXTT17=
EXTT18=
EXTT19=
EXTT20=
EXTT21=
EXTT22=
EXTT23=
EXTT24=
EXTT25=
EXTT26=
EXTT27=
EXTT28=
EXTT29=
EXTT30=
PLAYORDER=
